<?xml version="1.0" standalone="no"?>
<!DOCTYPE svg PUBLIC "-//W3C//DTD SVG 20010904//EN"
 "http://www.w3.org/TR/2001/REC-SVG-20010904/DTD/svg10.dtd">
<svg version="1.0" xmlns="http://www.w3.org/2000/svg"
 width="1080.000000pt" height="1080.000000pt" viewBox="0 0 1080.000000 1080.000000"
 preserveAspectRatio="xMidYMid meet">

<g transform="translate(0.000000,1080.000000) scale(0.100000,-0.100000)"
fill="#000000" stroke="none">
<path d="M3390 7488 c-103 -29 -161 -188 -113 -310 21 -55 72 -138 156 -256
89 -126 154 -249 221 -422 121 -309 155 -382 256 -545 l69 -111 -30 -99 c-51
-170 -60 -228 -66 -452 -6 -240 5 -367 43 -482 64 -192 211 -351 325 -351 86
0 121 58 159 262 12 62 28 122 36 132 13 19 14 19 34 1 11 -10 45 -59 76 -109
73 -117 195 -265 324 -391 57 -55 99 -93 95 -85 -5 8 -51 82 -102 163 -131
205 -244 413 -342 626 l-83 181 -32 -43 c-51 -68 -66 -95 -92 -165 -34 -90
-62 -211 -70 -307 -7 -90 -16 -115 -44 -115 -33 0 -49 11 -86 61 -97 132 -137
301 -138 574 0 196 10 276 54 420 15 50 31 109 35 132 9 59 -16 139 -66 204
-55 74 -127 226 -209 445 -93 248 -153 369 -265 533 -131 194 -175 289 -161
347 22 85 280 21 499 -124 106 -70 170 -93 311 -112 286 -38 582 -178 876
-414 115 -92 336 -319 422 -433 133 -177 180 -266 534 -1007 192 -402 216
-430 454 -521 157 -60 211 -87 385 -193 201 -121 365 -243 365 -271 0 -19 -22
-23 -184 -37 -90 -7 -211 -25 -268 -38 -112 -27 -218 -68 -218 -86 0 -6 13
-37 30 -69 73 -145 236 -278 540 -440 74 -40 188 -108 254 -152 65 -44 123
-78 128 -77 18 6 -86 119 -218 239 -155 140 -209 184 -335 271 -90 62 -169
136 -169 158 0 19 67 38 305 85 109 22 232 54 273 71 l34 14 -24 41 c-69 124
-476 425 -783 581 -88 44 -177 94 -197 110 -74 58 -157 207 -333 599 -109 243
-238 495 -318 625 -173 280 -571 661 -915 876 -177 111 -283 149 -507 183
-176 26 -212 40 -375 139 -213 130 -415 183 -550 144z"/>
<path d="M4140 6765 c0 -28 124 -200 147 -203 28 -4 38 38 23 104 -12 53 -30
78 -72 100 -37 19 -98 19 -98 -1z"/>
</g>
</svg>
